<svg width="5997" height="2010" viewBox="0 0 5997 2010" fill="none" xmlns="http://www.w3.org/2000/svg">
<rect x="9.99998" y="1005" width="1400" height="1400" transform="rotate(-45 9.99998 1005)" fill="white"/>
<rect x="453.949" y="1005" width="772.161" height="772.161" transform="rotate(-45 453.949 1005)" fill="#075293"/>
<rect x="624.701" y="1005" width="530.681" height="530.681" transform="rotate(-45 624.701 1005)" fill="white"/>
<rect x="810.899" y="1005" width="267.358" height="267.358" transform="rotate(-45 810.899 1005)" fill="#075293"/>
<path d="M2484 461C2523.33 461 2553.67 465.333 2575 474C2596.33 482 2614.67 490.667 2630 500C2638 504.667 2644.33 508.333 2649 511C2654.33 513 2659.33 514 2664 514C2670.67 514 2675.33 510.333 2678 503C2681.33 495.667 2684 484.667 2686 470H2709C2708.33 482.667 2707.33 498 2706 516C2705.33 533.333 2704.67 556.333 2704 585C2704 613.667 2704 651.333 2704 698H2681C2678.33 663.333 2670.33 629.667 2657 597C2643.67 564.333 2624.67 537.667 2600 517C2576 495.667 2546.33 485 2511 485C2479 485 2452.67 494 2432 512C2411.33 530 2401 555 2401 587C2401 613.667 2407.67 636.667 2421 656C2434.33 674.667 2453.67 693 2479 711C2505 729 2536.33 750.667 2573 776C2605 796.667 2633.67 817.333 2659 838C2684.33 858.667 2704.67 882 2720 908C2735.33 934 2743 965 2743 1001C2743 1045 2731.33 1081.33 2708 1110C2685.33 1138.67 2655.33 1160.33 2618 1175C2580.67 1189 2539.67 1196 2495 1196C2453.67 1196 2420.67 1192 2396 1184C2371.33 1176 2350.67 1167.67 2334 1159C2319.33 1149.67 2308 1145 2300 1145C2293.33 1145 2288.33 1148.67 2285 1156C2282.33 1163.33 2280 1174.33 2278 1189H2255C2256.33 1173 2257 1154.33 2257 1133C2257.67 1111.67 2258 1084 2258 1050C2258.67 1015.33 2259 971.667 2259 919H2282C2284.67 963 2292 1004.33 2304 1043C2316.67 1081 2335.67 1111.67 2361 1135C2387 1158.33 2421.33 1170 2464 1170C2487.33 1170 2508 1166 2526 1158C2544.67 1149.33 2559.67 1136.67 2571 1120C2582.33 1103.33 2588 1082.67 2588 1058C2588 1030 2581.33 1005.67 2568 985C2555.33 964.333 2537.67 945 2515 927C2493 909 2467.33 890.667 2438 872C2406.67 851.333 2377.33 830.667 2350 810C2322.67 789.333 2300.67 765.667 2284 739C2268 712.333 2260 680.667 2260 644C2260 602 2270.33 567.667 2291 541C2312.33 513.667 2340 493.667 2374 481C2408.67 467.667 2445.33 461 2484 461ZM3305.98 654V1073C3305.98 1103 3310.65 1125.33 3319.98 1140C3329.32 1154 3345.98 1161 3369.98 1161V1182C3349.32 1180 3328.65 1179 3307.98 1179C3279.98 1179 3253.98 1180 3229.98 1182C3205.98 1184 3183.32 1187.67 3161.98 1193V1103C3145.98 1136.33 3123.65 1160.33 3094.98 1175C3066.98 1189 3035.65 1196 3000.98 1196C2972.98 1196 2950.32 1192.33 2932.98 1185C2915.65 1177.67 2901.98 1168.33 2891.98 1157C2880.65 1144.33 2872.65 1127.67 2867.98 1107C2863.32 1086.33 2860.98 1059.67 2860.98 1027V774C2860.98 744 2856.32 722 2846.98 708C2838.32 693.333 2821.65 686 2796.98 686V665C2818.32 667 2838.98 668 2858.98 668C2886.98 668 2912.98 667 2936.98 665C2961.65 662.333 2984.32 658.667 3004.98 654V1068C3004.98 1084.67 3006.32 1099.33 3008.98 1112C3012.32 1124.67 3018.32 1134.67 3026.98 1142C3035.65 1148.67 3048.32 1152 3064.98 1152C3082.98 1152 3098.98 1147 3112.98 1137C3127.65 1127 3139.32 1113.33 3147.98 1096C3157.32 1078 3161.98 1058 3161.98 1036V774C3161.98 744 3157.32 722 3147.98 708C3139.32 693.333 3122.65 686 3097.98 686V665C3119.32 667 3139.98 668 3159.98 668C3187.98 668 3213.98 667 3237.98 665C3262.65 662.333 3285.32 658.667 3305.98 654ZM3786.43 651C3814.43 651 3837.1 654.667 3854.43 662C3872.43 668.667 3886.43 678 3896.43 690C3907.1 702.667 3914.76 719 3919.43 739C3924.76 759 3927.43 786 3927.43 820V1089C3927.43 1117 3932.1 1136 3941.43 1146C3951.43 1156 3968.1 1161 3991.43 1161V1182C3978.76 1181.33 3959.76 1180.67 3934.43 1180C3909.1 1178.67 3884.1 1178 3859.43 1178C3834.1 1178 3809.1 1178.67 3784.43 1180C3760.43 1180.67 3742.1 1181.33 3729.43 1182V1161C3749.43 1161 3763.43 1156 3771.43 1146C3779.43 1136 3783.43 1117 3783.43 1089V778C3783.43 761.333 3781.76 747 3778.43 735C3775.1 722.333 3769.1 712.667 3760.43 706C3751.76 698.667 3738.76 695 3721.43 695C3703.43 695 3686.76 700 3671.43 710C3656.76 720 3644.76 734 3635.43 752C3626.76 769.333 3622.43 789 3622.43 811V1089C3622.43 1117 3626.43 1136 3634.43 1146C3643.1 1156 3657.1 1161 3676.43 1161V1182C3664.43 1181.33 3646.76 1180.67 3623.43 1180C3600.76 1178.67 3577.1 1178 3552.43 1178C3527.1 1178 3501.1 1178.67 3474.43 1180C3447.76 1180.67 3427.76 1181.33 3414.43 1182V1161C3437.76 1161 3454.1 1156 3463.43 1146C3473.43 1136 3478.43 1117 3478.43 1089V774C3478.43 744 3473.76 722 3464.43 708C3455.76 693.333 3439.1 686 3414.43 686V665C3435.76 667 3456.43 668 3476.43 668C3504.43 668 3530.43 667 3554.43 665C3579.1 662.333 3601.76 658.667 3622.43 654V744C3639.1 710 3661.76 686 3690.43 672C3719.1 658 3751.1 651 3786.43 651ZM4258.95 665V686C4244.28 686 4231.28 687 4219.95 689C4209.28 690.333 4201.95 695 4197.95 703C4194.61 711 4195.95 724 4201.95 742L4296.95 1039L4283.95 1053L4400.95 664L4420.95 673L4267.95 1184C4257.28 1183.33 4246.61 1183 4235.95 1183C4225.28 1183 4214.28 1183.33 4202.95 1184L4044.95 742C4035.61 715.333 4025.28 699.333 4013.95 694C4003.28 688.667 3994.28 686 3986.95 686V665C4008.28 667 4030.28 668.667 4052.95 670C4076.28 670.667 4101.61 671 4128.95 671C4149.61 671 4171.28 670.333 4193.95 669C4217.28 667.667 4238.95 666.333 4258.95 665ZM4780.95 665V685C4768.28 688.333 4756.28 696 4744.95 708C4733.61 720 4722.95 741 4712.95 771L4579.95 1184C4569.28 1183.33 4558.28 1183 4546.95 1183C4536.28 1183 4525.61 1183.33 4514.95 1184L4373.95 799L4400.95 664C4412.95 664.667 4424.95 665 4436.95 665C4449.61 664.333 4461.95 664 4473.95 664L4610.95 1068L4599.95 1057L4666.95 845C4678.28 808.333 4682.61 778.667 4679.95 756C4677.28 733.333 4669.28 716.333 4655.95 705C4642.61 693.667 4624.61 687 4601.95 685V665C4612.61 665.667 4623.95 666.333 4635.95 667C4648.61 667 4660.95 667.333 4672.95 668C4685.61 668 4696.28 668 4704.95 668C4718.28 668 4731.95 667.667 4745.95 667C4760.61 666.333 4772.28 665.667 4780.95 665ZM4931.34 1189C4901.34 1189 4876.34 1183.33 4856.34 1172C4836.34 1160.67 4821.67 1145.67 4812.34 1127C4803 1107.67 4798.34 1086.67 4798.34 1064C4798.34 1035.33 4804.67 1012 4817.34 994C4830.67 976 4847.67 961.333 4868.34 950C4889 938.667 4910.67 929.333 4933.34 922C4956.67 914.667 4978.67 907.667 4999.34 901C5020.67 893.667 5037.67 885.333 5050.34 876C5063.67 866 5070.34 853.333 5070.34 838V760C5070.34 742.667 5067.34 727.333 5061.34 714C5056 700 5047.34 689.333 5035.34 682C5024 674.667 5009 671 4990.34 671C4977 671 4963.67 673 4950.34 677C4937 680.333 4926 686.333 4917.34 695C4936 701.667 4950.34 712 4960.34 726C4971 739.333 4976.34 754.667 4976.34 772C4976.34 794.667 4968.34 812.667 4952.34 826C4937 839.333 4918.67 846 4897.34 846C4873.34 846 4855 838.667 4842.34 824C4830.34 808.667 4824.34 790.333 4824.34 769C4824.34 749.667 4829 733.667 4838.34 721C4848.34 708.333 4862 696.333 4879.34 685C4898 674.333 4920.34 666 4946.34 660C4973 654 5001.67 651 5032.34 651C5063 651 5090.67 654.333 5115.34 661C5140 667 5160.67 678.333 5177.34 695C5192.67 710.333 5202.67 729.333 5207.34 752C5212 774 5214.34 802 5214.34 836V1108C5214.34 1124.67 5216 1136.33 5219.34 1143C5222.67 1149 5228.34 1152 5236.34 1152C5242.34 1152 5248 1150.33 5253.34 1147C5259.34 1143.67 5265.67 1139.67 5272.34 1135L5282.34 1152C5268.34 1164 5252 1173.33 5233.34 1180C5215.34 1186 5195 1189 5172.34 1189C5147.67 1189 5128 1185.67 5113.34 1179C5098.67 1171.67 5088 1162 5081.34 1150C5075.34 1138 5072.34 1124 5072.34 1108C5056.34 1133.33 5037 1153.33 5014.34 1168C4991.67 1182 4964 1189 4931.34 1189ZM5002.34 1125C5015.67 1125 5027.67 1122 5038.34 1116C5049.67 1109.33 5060.34 1098.67 5070.34 1084V879C5064.34 889 5056 898 5045.34 906C5034.67 914 5023.34 922.333 5011.34 931C4999.34 939 4987.67 948 4976.34 958C4965.67 968 4957 980.333 4950.34 995C4943.67 1009.67 4940.34 1027.33 4940.34 1048C4940.34 1074 4946 1093.33 4957.34 1106C4968.67 1118.67 4983.67 1125 5002.34 1125ZM5791.13 665V685C5778.46 688.333 5766.46 696.333 5755.13 709C5743.79 721 5732.79 741.667 5722.13 771L5581.13 1167L5544.13 1237L5326.13 742C5314.79 716 5303.46 700.333 5292.13 695C5281.46 689 5272.12 686 5264.12 686V665C5286.13 667 5308.79 668.667 5332.13 670C5356.13 670.667 5379.13 671 5401.13 671C5428.46 671 5453.46 670.333 5476.13 669C5498.79 667.667 5520.13 666.333 5540.13 665V686C5526.79 686 5514.13 687 5502.13 689C5490.79 690.333 5482.79 695 5478.13 703C5474.13 710.333 5476.13 723.333 5484.13 742L5610.13 1046L5601.13 1052L5675.13 845C5687.79 809 5693.13 779.667 5691.13 757C5689.13 733.667 5681.79 716.333 5669.13 705C5656.46 693 5639.13 686.333 5617.13 685V665C5627.79 665.667 5638.79 666.333 5650.13 667C5661.46 667 5672.79 667.333 5684.13 668C5695.46 668 5705.46 668 5714.13 668C5727.46 668 5741.46 667.667 5756.13 667C5770.79 666.333 5782.46 665.667 5791.13 665ZM5581.13 1167L5543.13 1274C5536.46 1290.67 5529.46 1304.67 5522.13 1316C5515.46 1328 5507.79 1337.67 5499.13 1345C5489.79 1353 5477.79 1359 5463.13 1363C5448.46 1367.67 5431.46 1370 5412.13 1370C5396.13 1370 5379.46 1367.33 5362.13 1362C5345.46 1356.67 5331.46 1348 5320.13 1336C5308.79 1324 5303.13 1308.67 5303.13 1290C5303.13 1269.33 5310.46 1252.67 5325.13 1240C5339.79 1228 5359.13 1222 5383.13 1222C5405.13 1222 5423.13 1227.33 5437.13 1238C5451.13 1248.67 5458.13 1264.33 5458.13 1285C5458.13 1298.33 5453.79 1311 5445.13 1323C5437.13 1335 5424.79 1344 5408.13 1350C5411.46 1350.67 5415.46 1351 5420.13 1351C5424.79 1351 5428.46 1351 5431.13 1351C5451.13 1351 5468.79 1344.67 5484.13 1332C5499.46 1319.33 5512.13 1299.33 5522.13 1272L5557.13 1169L5581.13 1167Z" fill="white"/>
<path d="M2618.1 1570.35C2629.77 1570.35 2638.63 1571.75 2644.7 1574.55C2650.77 1577.12 2656.13 1580.03 2660.8 1583.3C2663.6 1584.93 2665.82 1586.22 2667.45 1587.15C2669.32 1587.85 2671.07 1588.2 2672.7 1588.2C2675.03 1588.2 2676.67 1586.92 2677.6 1584.35C2678.77 1581.78 2679.7 1577.93 2680.4 1572.8H2688.45C2688.22 1576.77 2687.87 1581.55 2687.4 1587.15C2687.17 1592.52 2686.93 1599.75 2686.7 1608.85C2686.7 1617.72 2686.7 1629.5 2686.7 1644.2H2678.65C2677.95 1633 2675.5 1622.27 2671.3 1612C2667.1 1601.73 2660.92 1593.33 2652.75 1586.8C2644.82 1580.27 2634.32 1577 2621.25 1577C2608.88 1577 2598.62 1580.73 2590.45 1588.2C2582.52 1595.67 2578.55 1605.47 2578.55 1617.6C2578.55 1628.1 2581.23 1636.97 2586.6 1644.2C2591.97 1651.2 2599.08 1657.62 2607.95 1663.45C2617.05 1669.05 2626.85 1675.12 2637.35 1681.65C2649.48 1689.12 2660.22 1696.58 2669.55 1704.05C2679.12 1711.28 2686.58 1719.33 2691.95 1728.2C2697.55 1737.07 2700.35 1747.8 2700.35 1760.4C2700.35 1775.33 2696.97 1787.7 2690.2 1797.5C2683.43 1807.3 2674.45 1814.65 2663.25 1819.55C2652.05 1824.45 2639.68 1826.9 2626.15 1826.9C2613.78 1826.9 2603.98 1825.5 2596.75 1822.7C2589.52 1819.9 2583.33 1816.98 2578.2 1813.95C2573.07 1810.68 2569.1 1809.05 2566.3 1809.05C2563.97 1809.05 2562.22 1810.33 2561.05 1812.9C2560.12 1815.47 2559.3 1819.32 2558.6 1824.45H2550.55C2551.02 1819.55 2551.25 1813.83 2551.25 1807.3C2551.48 1800.53 2551.6 1791.78 2551.6 1781.05C2551.83 1770.32 2551.95 1756.78 2551.95 1740.45H2560C2560.93 1754.45 2563.5 1767.52 2567.7 1779.65C2572.13 1791.78 2578.78 1801.58 2587.65 1809.05C2596.75 1816.28 2608.77 1819.9 2623.7 1819.9C2631.4 1819.9 2638.63 1818.38 2645.4 1815.35C2652.4 1812.08 2658.12 1807.07 2662.55 1800.3C2666.98 1793.3 2669.2 1784.32 2669.2 1773.35C2669.2 1763.78 2666.87 1755.5 2662.2 1748.5C2657.77 1741.27 2651.47 1734.62 2643.3 1728.55C2635.13 1722.25 2625.57 1715.83 2614.6 1709.3C2603.63 1702.53 2593.37 1695.65 2583.8 1688.65C2574.23 1681.65 2566.53 1673.6 2560.7 1664.5C2555.1 1655.17 2552.3 1643.97 2552.3 1630.9C2552.3 1617.13 2555.33 1605.82 2561.4 1596.95C2567.7 1587.85 2575.87 1581.2 2585.9 1577C2595.93 1572.57 2606.67 1570.35 2618.1 1570.35ZM2813.41 1636.85C2828.35 1636.85 2841.76 1640.12 2853.66 1646.65C2865.56 1653.18 2875.01 1663.45 2882.01 1677.45C2889.25 1691.45 2892.86 1709.65 2892.86 1732.05C2892.86 1754.45 2889.25 1772.65 2882.01 1786.65C2875.01 1800.42 2865.56 1810.57 2853.66 1817.1C2841.76 1823.63 2828.35 1826.9 2813.41 1826.9C2798.71 1826.9 2785.3 1823.63 2773.16 1817.1C2761.26 1810.57 2751.7 1800.42 2744.46 1786.65C2737.46 1772.65 2733.96 1754.45 2733.96 1732.05C2733.96 1709.65 2737.46 1691.45 2744.46 1677.45C2751.7 1663.45 2761.26 1653.18 2773.16 1646.65C2785.3 1640.12 2798.71 1636.85 2813.41 1636.85ZM2813.41 1643.85C2800.11 1643.85 2789.15 1650.73 2780.51 1664.5C2772.11 1678.27 2767.91 1700.78 2767.91 1732.05C2767.91 1763.32 2772.11 1785.83 2780.51 1799.6C2789.15 1813.13 2800.11 1819.9 2813.41 1819.9C2826.71 1819.9 2837.56 1813.13 2845.96 1799.6C2854.6 1785.83 2858.91 1763.32 2858.91 1732.05C2858.91 1700.78 2854.6 1678.27 2845.96 1664.5C2837.56 1650.73 2826.71 1643.85 2813.41 1643.85ZM3005.86 1548.3C3012.4 1548.3 3018.11 1549.23 3023.01 1551.1C3028.15 1552.73 3032.58 1554.95 3036.31 1557.75C3039.81 1560.55 3042.5 1563.82 3044.36 1567.55C3046.23 1571.28 3047.16 1575.25 3047.16 1579.45C3047.16 1584.82 3045.41 1589.25 3041.91 1592.75C3038.41 1596.25 3033.98 1598 3028.61 1598C3023.48 1598 3018.93 1596.37 3014.96 1593.1C3011.23 1589.6 3009.36 1584.93 3009.36 1579.1C3009.36 1574.2 3010.65 1570.23 3013.21 1567.2C3016.01 1564.17 3019.63 1562.18 3024.06 1561.25C3023.36 1559.15 3021.5 1557.4 3018.46 1556C3015.66 1554.37 3011.81 1553.55 3006.91 1553.55C3001.55 1553.55 2996.88 1554.72 2992.91 1557.05C2989.18 1559.38 2986.26 1562.53 2984.16 1566.5C2981.36 1571.4 2979.61 1578.75 2978.91 1588.55C2978.21 1598.12 2977.86 1612.93 2977.86 1633V1642.1H3015.31V1649.1H2977.86V1785.95C2977.86 1797.38 2981.13 1805.08 2987.66 1809.05C2994.43 1812.78 3003.53 1814.65 3014.96 1814.65V1822C3009.6 1821.77 3002.01 1821.53 2992.21 1821.3C2982.41 1820.83 2972.03 1820.6 2961.06 1820.6C2953.13 1820.6 2945.2 1820.83 2937.26 1821.3C2929.56 1821.53 2923.73 1821.77 2919.76 1822V1814.65C2929.33 1814.65 2936.1 1812.9 2940.06 1809.4C2944.26 1805.9 2946.36 1799.25 2946.36 1789.45V1649.1H2918.36V1642.1H2946.36C2946.36 1628.33 2946.95 1616.78 2948.11 1607.45C2949.28 1598.12 2951.15 1590.18 2953.71 1583.65C2956.28 1576.88 2959.78 1570.93 2964.21 1565.8C2968.88 1560.43 2974.83 1556.23 2982.06 1553.2C2989.3 1549.93 2997.23 1548.3 3005.86 1548.3ZM3091.97 1583.65V1642.1H3143.77V1649.1H3091.97V1784.55C3091.97 1795.52 3093.96 1803.22 3097.92 1807.65C3101.89 1812.08 3107.37 1814.3 3114.37 1814.3C3121.37 1814.3 3127.44 1811.5 3132.57 1805.9C3137.71 1800.07 3142.14 1790.38 3145.87 1776.85L3152.87 1778.6C3150.54 1792.13 3145.87 1803.57 3138.87 1812.9C3132.11 1822.23 3121.61 1826.9 3107.37 1826.9C3099.44 1826.9 3092.91 1825.85 3087.77 1823.75C3082.64 1821.88 3078.09 1819.08 3074.12 1815.35C3068.99 1809.98 3065.37 1803.57 3063.27 1796.1C3061.41 1788.63 3060.47 1778.72 3060.47 1766.35V1649.1H3026.87V1642.1H3060.47V1588.55C3066.31 1588.32 3071.91 1587.85 3077.27 1587.15C3082.64 1586.45 3087.54 1585.28 3091.97 1583.65ZM3225.5 1641.75V1649.1C3219.67 1649.1 3214.54 1649.57 3210.1 1650.5C3205.67 1651.2 3202.75 1653.53 3201.35 1657.5C3199.95 1661.47 3201 1668.47 3204.5 1678.5L3240.9 1782.8L3238.45 1782.45L3289.9 1640.35L3296.9 1643.15L3232.85 1823.75C3231.92 1823.75 3230.99 1823.75 3230.05 1823.75C3229.12 1823.75 3228.07 1823.75 3226.9 1823.75L3169.5 1668.7C3165.77 1659.37 3162.04 1653.77 3158.3 1651.9C3154.8 1650.03 3151.77 1649.1 3149.2 1649.1V1641.75C3153.87 1642.45 3158.65 1643.03 3163.55 1643.5C3168.69 1643.73 3174.17 1643.85 3180 1643.85C3187.24 1643.85 3194.82 1643.62 3202.75 1643.15C3210.92 1642.68 3218.5 1642.22 3225.5 1641.75ZM3417.65 1641.75V1648.75C3413.22 1649.22 3409.02 1651.2 3405.05 1654.7C3401.32 1657.97 3397.94 1664.15 3394.9 1673.25L3344.15 1823.75C3343.22 1823.75 3342.29 1823.75 3341.35 1823.75C3340.42 1823.75 3339.37 1823.75 3338.2 1823.75L3281.85 1680.6L3289.9 1640.35C3291.3 1640.35 3292.59 1640.35 3293.75 1640.35C3295.15 1640.35 3296.55 1640.35 3297.95 1640.35L3352.55 1784.9L3349.75 1787L3384.4 1681.65C3386.97 1673.72 3387.9 1667.53 3387.2 1663.1C3386.74 1658.43 3384.4 1655.05 3380.2 1652.95C3376.24 1650.62 3370.05 1649.22 3361.65 1648.75V1641.75C3365.85 1641.98 3369.47 1642.22 3372.5 1642.45C3375.54 1642.45 3378.45 1642.57 3381.25 1642.8C3384.29 1642.8 3387.55 1642.8 3391.05 1642.8C3396.42 1642.8 3401.2 1642.68 3405.4 1642.45C3409.84 1642.22 3413.92 1641.98 3417.65 1641.75ZM3476.34 1824.45C3466.77 1824.45 3458.49 1822.7 3451.49 1819.2C3444.49 1815.47 3439.12 1810.33 3435.39 1803.8C3431.89 1797.27 3430.14 1789.68 3430.14 1781.05C3430.14 1770.78 3432.47 1762.38 3437.14 1755.85C3442.04 1749.32 3448.22 1744.07 3455.69 1740.1C3463.15 1736.13 3470.97 1732.87 3479.14 1730.3C3487.54 1727.5 3495.47 1724.93 3502.94 1722.6C3510.4 1720.03 3516.47 1717.12 3521.14 1713.85C3526.04 1710.58 3528.49 1706.27 3528.49 1700.9V1679.2C3528.49 1669.4 3526.97 1661.93 3523.94 1656.8C3521.14 1651.67 3517.29 1648.28 3512.39 1646.65C3507.49 1644.78 3502 1643.85 3495.94 1643.85C3490.1 1643.85 3483.8 1644.67 3477.04 1646.3C3470.5 1647.93 3465.25 1651.32 3461.29 1656.45C3465.72 1657.38 3469.57 1659.72 3472.84 1663.45C3476.1 1667.18 3477.74 1671.97 3477.74 1677.8C3477.74 1683.63 3475.87 1688.3 3472.14 1691.8C3468.4 1695.07 3463.62 1696.7 3457.79 1696.7C3451.02 1696.7 3446 1694.6 3442.74 1690.4C3439.7 1685.97 3438.19 1681.07 3438.19 1675.7C3438.19 1669.63 3439.7 1664.73 3442.74 1661C3445.77 1657.27 3449.62 1653.77 3454.29 1650.5C3459.65 1646.77 3466.54 1643.62 3474.94 1641.05C3483.57 1638.25 3493.25 1636.85 3503.99 1636.85C3513.55 1636.85 3521.72 1638.02 3528.49 1640.35C3535.25 1642.45 3540.85 1645.6 3545.29 1649.8C3551.35 1655.4 3555.32 1662.28 3557.19 1670.45C3559.05 1678.38 3559.99 1687.95 3559.99 1699.15V1796.45C3559.99 1802.28 3560.8 1806.48 3562.44 1809.05C3564.3 1811.62 3567.1 1812.9 3570.84 1812.9C3573.4 1812.9 3575.85 1812.32 3578.19 1811.15C3580.52 1809.98 3583.32 1808.12 3586.59 1805.55L3590.44 1811.5C3585.54 1815.23 3580.87 1818.38 3576.44 1820.95C3572 1823.28 3566.05 1824.45 3558.59 1824.45C3551.82 1824.45 3546.22 1823.28 3541.79 1820.95C3537.35 1818.62 3533.97 1815.23 3531.64 1810.8C3529.54 1806.13 3528.49 1800.3 3528.49 1793.3C3522.19 1803.8 3514.6 1811.62 3505.74 1816.75C3497.1 1821.88 3487.3 1824.45 3476.34 1824.45ZM3488.94 1810.45C3496.64 1810.45 3503.75 1808.23 3510.29 1803.8C3517.05 1799.37 3523.12 1792.72 3528.49 1783.85V1715.25C3525.69 1719.22 3521.6 1722.6 3516.24 1725.4C3510.87 1727.97 3505.04 1730.65 3498.74 1733.45C3492.44 1736.02 3486.37 1739.17 3480.54 1742.9C3474.94 1746.4 3470.27 1751.07 3466.54 1756.9C3462.8 1762.73 3460.94 1770.32 3460.94 1779.65C3460.94 1788.98 3463.39 1796.45 3468.29 1802.05C3473.42 1807.65 3480.3 1810.45 3488.94 1810.45ZM3709.8 1636.85C3716.1 1636.85 3721.59 1638.13 3726.25 1640.7C3731.15 1643.27 3734.89 1646.65 3737.45 1650.85C3740.25 1654.82 3741.65 1659.37 3741.65 1664.5C3741.65 1670.33 3739.79 1675.47 3736.05 1679.9C3732.55 1684.33 3727.77 1686.55 3721.7 1686.55C3716.8 1686.55 3712.49 1685.03 3708.75 1682C3705.02 1678.73 3703.15 1674.18 3703.15 1668.35C3703.15 1663.92 3704.32 1660.18 3706.65 1657.15C3709.22 1653.88 3712.02 1651.32 3715.05 1649.45C3713.42 1647.12 3710.97 1645.95 3707.7 1645.95C3700.47 1645.95 3693.82 1648.17 3687.75 1652.6C3681.69 1656.8 3676.55 1662.28 3672.35 1669.05C3668.15 1675.82 3664.89 1683.05 3662.55 1690.75C3660.22 1698.22 3659.05 1705.22 3659.05 1711.75V1785.95C3659.05 1797.38 3662.32 1805.08 3668.85 1809.05C3675.62 1812.78 3684.72 1814.65 3696.15 1814.65V1822C3690.79 1821.77 3683.2 1821.53 3673.4 1821.3C3663.6 1820.83 3653.22 1820.6 3642.25 1820.6C3634.32 1820.6 3626.39 1820.83 3618.45 1821.3C3610.75 1821.53 3604.92 1821.77 3600.95 1822V1814.65C3610.52 1814.65 3617.29 1812.9 3621.25 1809.4C3625.45 1805.9 3627.55 1799.25 3627.55 1789.45V1679.9C3627.55 1669.4 3625.69 1661.7 3621.95 1656.8C3618.22 1651.67 3611.22 1649.1 3600.95 1649.1V1641.75C3608.42 1642.45 3615.65 1642.8 3622.65 1642.8C3629.42 1642.8 3635.84 1642.45 3641.9 1641.75C3648.2 1640.82 3653.92 1639.53 3659.05 1637.9V1681.65C3661.62 1674.88 3665.24 1668.12 3669.9 1661.35C3674.8 1654.35 3680.64 1648.52 3687.4 1643.85C3694.17 1639.18 3701.64 1636.85 3709.8 1636.85ZM3835.03 1636.85C3855.56 1636.85 3871.54 1643.15 3882.98 1655.75C3894.64 1668.12 3900.48 1687.48 3900.48 1713.85H3776.93L3776.58 1707.2H3866.88C3867.34 1695.77 3866.41 1685.27 3864.08 1675.7C3861.74 1665.9 3858.01 1658.08 3852.88 1652.25C3847.98 1646.42 3841.56 1643.5 3833.63 1643.5C3822.89 1643.5 3813.33 1648.87 3804.93 1659.6C3796.76 1670.33 3791.86 1687.37 3790.23 1710.7L3791.28 1712.1C3790.81 1715.6 3790.46 1719.45 3790.23 1723.65C3789.99 1727.85 3789.88 1732.05 3789.88 1736.25C3789.88 1752.12 3792.44 1765.77 3797.58 1777.2C3802.71 1788.63 3809.36 1797.38 3817.53 1803.45C3825.93 1809.28 3834.56 1812.2 3843.43 1812.2C3850.43 1812.2 3857.08 1811.15 3863.38 1809.05C3869.68 1806.72 3875.51 1802.98 3880.88 1797.85C3886.24 1792.72 3890.91 1785.83 3894.88 1777.2L3901.88 1780C3899.31 1787.7 3895.11 1795.17 3889.28 1802.4C3883.44 1809.63 3876.09 1815.58 3867.23 1820.25C3858.36 1824.68 3848.09 1826.9 3836.43 1826.9C3819.63 1826.9 3805.16 1823.05 3793.03 1815.35C3781.13 1807.65 3771.91 1797.03 3765.38 1783.5C3759.08 1769.73 3755.93 1753.98 3755.93 1736.25C3755.93 1715.72 3759.19 1698.1 3765.73 1683.4C3772.26 1668.47 3781.48 1657.03 3793.38 1649.1C3805.28 1640.93 3819.16 1636.85 3835.03 1636.85ZM4093.64 1570.35C4105.3 1570.35 4114.17 1571.75 4120.24 1574.55C4126.3 1577.12 4131.67 1580.03 4136.34 1583.3C4139.14 1584.93 4141.35 1586.22 4142.99 1587.15C4144.85 1587.85 4146.6 1588.2 4148.24 1588.2C4150.57 1588.2 4152.2 1586.92 4153.14 1584.35C4154.3 1581.78 4155.24 1577.93 4155.94 1572.8H4163.99C4163.75 1576.77 4163.4 1581.55 4162.94 1587.15C4162.7 1592.52 4162.47 1599.75 4162.24 1608.85C4162.24 1617.72 4162.24 1629.5 4162.24 1644.2H4154.19C4153.49 1633 4151.04 1622.27 4146.84 1612C4142.64 1601.73 4136.45 1593.33 4128.29 1586.8C4120.35 1580.27 4109.85 1577 4096.79 1577C4084.42 1577 4074.15 1580.73 4065.99 1588.2C4058.05 1595.67 4054.09 1605.47 4054.09 1617.6C4054.09 1628.1 4056.77 1636.97 4062.14 1644.2C4067.5 1651.2 4074.62 1657.62 4083.49 1663.45C4092.59 1669.05 4102.39 1675.12 4112.89 1681.65C4125.02 1689.12 4135.75 1696.58 4145.09 1704.05C4154.65 1711.28 4162.12 1719.33 4167.49 1728.2C4173.09 1737.07 4175.89 1747.8 4175.89 1760.4C4175.89 1775.33 4172.5 1787.7 4165.74 1797.5C4158.97 1807.3 4149.99 1814.65 4138.79 1819.55C4127.59 1824.45 4115.22 1826.9 4101.69 1826.9C4089.32 1826.9 4079.52 1825.5 4072.29 1822.7C4065.05 1819.9 4058.87 1816.98 4053.74 1813.95C4048.6 1810.68 4044.64 1809.05 4041.84 1809.05C4039.5 1809.05 4037.75 1810.33 4036.59 1812.9C4035.65 1815.47 4034.84 1819.32 4034.14 1824.45H4026.09C4026.55 1819.55 4026.79 1813.83 4026.79 1807.3C4027.02 1800.53 4027.14 1791.78 4027.14 1781.05C4027.37 1770.32 4027.49 1756.78 4027.49 1740.45H4035.54C4036.47 1754.45 4039.04 1767.52 4043.24 1779.65C4047.67 1791.78 4054.32 1801.58 4063.19 1809.05C4072.29 1816.28 4084.3 1819.9 4099.24 1819.9C4106.94 1819.9 4114.17 1818.38 4120.94 1815.35C4127.94 1812.08 4133.65 1807.07 4138.09 1800.3C4142.52 1793.3 4144.74 1784.32 4144.74 1773.35C4144.74 1763.78 4142.4 1755.5 4137.74 1748.5C4133.3 1741.27 4127 1734.62 4118.84 1728.55C4110.67 1722.25 4101.1 1715.83 4090.14 1709.3C4079.17 1702.53 4068.9 1695.65 4059.34 1688.65C4049.77 1681.65 4042.07 1673.6 4036.24 1664.5C4030.64 1655.17 4027.84 1643.97 4027.84 1630.9C4027.84 1617.13 4030.87 1605.82 4036.94 1596.95C4043.24 1587.85 4051.4 1581.2 4061.44 1577C4071.47 1572.57 4082.2 1570.35 4093.64 1570.35ZM4288.95 1636.85C4303.88 1636.85 4317.3 1640.12 4329.2 1646.65C4341.1 1653.18 4350.55 1663.45 4357.55 1677.45C4364.78 1691.45 4368.4 1709.65 4368.4 1732.05C4368.4 1754.45 4364.78 1772.65 4357.55 1786.65C4350.55 1800.42 4341.1 1810.57 4329.2 1817.1C4317.3 1823.63 4303.88 1826.9 4288.95 1826.9C4274.25 1826.9 4260.83 1823.63 4248.7 1817.1C4236.8 1810.57 4227.23 1800.42 4220 1786.65C4213 1772.65 4209.5 1754.45 4209.5 1732.05C4209.5 1709.65 4213 1691.45 4220 1677.45C4227.23 1663.45 4236.8 1653.18 4248.7 1646.65C4260.83 1640.12 4274.25 1636.85 4288.95 1636.85ZM4288.95 1643.85C4275.65 1643.85 4264.68 1650.73 4256.05 1664.5C4247.65 1678.27 4243.45 1700.78 4243.45 1732.05C4243.45 1763.32 4247.65 1785.83 4256.05 1799.6C4264.68 1813.13 4275.65 1819.9 4288.95 1819.9C4302.25 1819.9 4313.1 1813.13 4321.5 1799.6C4330.13 1785.83 4334.45 1763.32 4334.45 1732.05C4334.45 1700.78 4330.13 1678.27 4321.5 1664.5C4313.1 1650.73 4302.25 1643.85 4288.95 1643.85ZM4447.18 1547.6V1789.45C4447.18 1799.25 4449.16 1805.9 4453.13 1809.4C4457.33 1812.9 4464.21 1814.65 4473.78 1814.65V1822C4469.81 1821.77 4463.75 1821.53 4455.58 1821.3C4447.65 1820.83 4439.6 1820.6 4431.43 1820.6C4423.5 1820.6 4415.45 1820.83 4407.28 1821.3C4399.11 1821.53 4393.05 1821.77 4389.08 1822V1814.65C4398.65 1814.65 4405.41 1812.9 4409.38 1809.4C4413.58 1805.9 4415.68 1799.25 4415.68 1789.45V1589.6C4415.68 1579.1 4413.81 1571.4 4410.08 1566.5C4406.35 1561.37 4399.35 1558.8 4389.08 1558.8V1551.45C4396.55 1552.15 4403.78 1552.5 4410.78 1552.5C4417.55 1552.5 4423.96 1552.15 4430.03 1551.45C4436.33 1550.52 4442.05 1549.23 4447.18 1547.6ZM4650.58 1637.9V1784.2C4650.58 1794.7 4652.44 1802.52 4656.18 1807.65C4660.14 1812.55 4667.14 1815 4677.18 1815V1822.35C4669.94 1821.65 4662.71 1821.3 4655.48 1821.3C4648.71 1821.3 4642.18 1821.65 4635.88 1822.35C4629.81 1823.05 4624.21 1824.33 4619.08 1826.2V1784.9C4613.24 1800.07 4604.96 1810.92 4594.23 1817.45C4583.73 1823.75 4572.88 1826.9 4561.68 1826.9C4553.51 1826.9 4546.39 1825.73 4540.33 1823.4C4534.26 1821.07 4529.24 1817.8 4525.28 1813.6C4520.84 1808.93 4517.81 1802.87 4516.18 1795.4C4514.54 1787.93 4513.73 1778.72 4513.73 1767.75V1679.9C4513.73 1669.4 4511.86 1661.7 4508.13 1656.8C4504.39 1651.67 4497.39 1649.1 4487.13 1649.1V1641.75C4494.59 1642.45 4501.83 1642.8 4508.83 1642.8C4515.59 1642.8 4522.01 1642.45 4528.08 1641.75C4534.38 1640.82 4540.09 1639.53 4545.23 1637.9V1775.45C4545.23 1782.68 4545.69 1789.33 4546.63 1795.4C4547.56 1801.47 4549.89 1806.37 4553.63 1810.1C4557.36 1813.83 4563.43 1815.7 4571.83 1815.7C4580.93 1815.7 4588.98 1812.9 4595.98 1807.3C4603.21 1801.7 4608.81 1794.12 4612.78 1784.55C4616.98 1774.98 4619.08 1764.25 4619.08 1752.35V1679.9C4619.08 1669.4 4617.21 1661.7 4613.48 1656.8C4609.74 1651.67 4602.74 1649.1 4592.48 1649.1V1641.75C4599.94 1642.45 4607.18 1642.8 4614.18 1642.8C4620.94 1642.8 4627.36 1642.45 4633.43 1641.75C4639.73 1640.82 4645.44 1639.53 4650.58 1637.9ZM4751.4 1583.65V1642.1H4803.2V1649.1H4751.4V1784.55C4751.4 1795.52 4753.38 1803.22 4757.35 1807.65C4761.31 1812.08 4766.8 1814.3 4773.8 1814.3C4780.8 1814.3 4786.86 1811.5 4792 1805.9C4797.13 1800.07 4801.56 1790.38 4805.3 1776.85L4812.3 1778.6C4809.96 1792.13 4805.3 1803.57 4798.3 1812.9C4791.53 1822.23 4781.03 1826.9 4766.8 1826.9C4758.86 1826.9 4752.33 1825.85 4747.2 1823.75C4742.06 1821.88 4737.51 1819.08 4733.55 1815.35C4728.41 1809.98 4724.8 1803.57 4722.7 1796.1C4720.83 1788.63 4719.9 1778.72 4719.9 1766.35V1649.1H4686.3V1642.1H4719.9V1588.55C4725.73 1588.32 4731.33 1587.85 4736.7 1587.15C4742.06 1586.45 4746.96 1585.28 4751.4 1583.65ZM4858.68 1554.25C4864.74 1554.25 4869.99 1556.47 4874.43 1560.9C4878.86 1565.33 4881.08 1570.58 4881.08 1576.65C4881.08 1582.72 4878.86 1587.97 4874.43 1592.4C4869.99 1596.83 4864.74 1599.05 4858.68 1599.05C4852.61 1599.05 4847.36 1596.83 4842.93 1592.4C4838.49 1587.97 4836.28 1582.72 4836.28 1576.65C4836.28 1570.58 4838.49 1565.33 4842.93 1560.9C4847.36 1556.47 4852.61 1554.25 4858.68 1554.25ZM4876.88 1637.9V1789.45C4876.88 1799.25 4878.86 1805.9 4882.83 1809.4C4887.03 1812.9 4893.91 1814.65 4903.48 1814.65V1822C4899.51 1821.77 4893.44 1821.53 4885.28 1821.3C4877.34 1820.83 4869.29 1820.6 4861.13 1820.6C4853.19 1820.6 4845.14 1820.83 4836.98 1821.3C4828.81 1821.53 4822.74 1821.77 4818.78 1822V1814.65C4828.34 1814.65 4835.11 1812.9 4839.08 1809.4C4843.28 1805.9 4845.38 1799.25 4845.38 1789.45V1679.9C4845.38 1669.4 4843.51 1661.7 4839.78 1656.8C4836.04 1651.67 4829.04 1649.1 4818.78 1649.1V1641.75C4826.24 1642.45 4833.48 1642.8 4840.48 1642.8C4847.24 1642.8 4853.66 1642.45 4859.73 1641.75C4866.03 1640.82 4871.74 1639.53 4876.88 1637.9ZM5007.07 1636.85C5022 1636.85 5035.42 1640.12 5047.32 1646.65C5059.22 1653.18 5068.67 1663.45 5075.67 1677.45C5082.9 1691.45 5086.52 1709.65 5086.52 1732.05C5086.52 1754.45 5082.9 1772.65 5075.67 1786.65C5068.67 1800.42 5059.22 1810.57 5047.32 1817.1C5035.42 1823.63 5022 1826.9 5007.07 1826.9C4992.37 1826.9 4978.95 1823.63 4966.82 1817.1C4954.92 1810.57 4945.35 1800.42 4938.12 1786.65C4931.12 1772.65 4927.62 1754.45 4927.62 1732.05C4927.62 1709.65 4931.12 1691.45 4938.12 1677.45C4945.35 1663.45 4954.92 1653.18 4966.82 1646.65C4978.95 1640.12 4992.37 1636.85 5007.07 1636.85ZM5007.07 1643.85C4993.77 1643.85 4982.8 1650.73 4974.17 1664.5C4965.77 1678.27 4961.57 1700.78 4961.57 1732.05C4961.57 1763.32 4965.77 1785.83 4974.17 1799.6C4982.8 1813.13 4993.77 1819.9 5007.07 1819.9C5020.37 1819.9 5031.22 1813.13 5039.62 1799.6C5048.25 1785.83 5052.57 1763.32 5052.57 1732.05C5052.57 1700.78 5048.25 1678.27 5039.62 1664.5C5031.22 1650.73 5020.37 1643.85 5007.07 1643.85ZM5230.66 1636.85C5239.53 1636.85 5246.88 1638.02 5252.71 1640.35C5258.78 1642.68 5263.8 1645.95 5267.76 1650.15C5272.2 1654.82 5275.35 1660.65 5277.21 1667.65C5279.08 1674.65 5280.01 1684.1 5280.01 1696V1789.45C5280.01 1799.25 5282 1805.9 5285.96 1809.4C5290.16 1812.9 5297.05 1814.65 5306.61 1814.65V1822C5302.65 1821.77 5296.58 1821.53 5288.41 1821.3C5280.25 1820.83 5272.31 1820.6 5264.61 1820.6C5256.91 1820.6 5249.33 1820.83 5241.86 1821.3C5234.63 1821.53 5229.15 1821.77 5225.41 1822V1814.65C5233.81 1814.65 5239.76 1812.9 5243.26 1809.4C5246.76 1805.9 5248.51 1799.25 5248.51 1789.45V1688.3C5248.51 1681.07 5247.93 1674.42 5246.76 1668.35C5245.6 1662.28 5242.91 1657.38 5238.71 1653.65C5234.75 1649.92 5228.56 1648.05 5220.16 1648.05C5210.36 1648.05 5201.73 1650.85 5194.26 1656.45C5187.03 1662.05 5181.31 1669.75 5177.11 1679.55C5173.15 1689.12 5171.16 1699.85 5171.16 1711.75V1789.45C5171.16 1799.25 5172.91 1805.9 5176.41 1809.4C5179.91 1812.9 5185.86 1814.65 5194.26 1814.65V1822C5190.53 1821.77 5184.93 1821.53 5177.46 1821.3C5170.23 1820.83 5162.76 1820.6 5155.06 1820.6C5147.36 1820.6 5139.43 1820.83 5131.26 1821.3C5123.1 1821.53 5117.03 1821.77 5113.06 1822V1814.65C5122.63 1814.65 5129.4 1812.9 5133.36 1809.4C5137.56 1805.9 5139.66 1799.25 5139.66 1789.45V1679.9C5139.66 1669.4 5137.8 1661.7 5134.06 1656.8C5130.33 1651.67 5123.33 1649.1 5113.06 1649.1V1641.75C5120.53 1642.45 5127.76 1642.8 5134.76 1642.8C5141.53 1642.8 5147.95 1642.45 5154.01 1641.75C5160.31 1640.82 5166.03 1639.53 5171.16 1637.9V1679.2C5177.23 1663.33 5185.63 1652.37 5196.36 1646.3C5207.33 1640 5218.76 1636.85 5230.66 1636.85ZM5384.55 1636.85C5393.89 1636.85 5401.82 1638.37 5408.35 1641.4C5414.89 1644.43 5419.67 1647.23 5422.7 1649.8C5430.4 1656.1 5435.07 1651.9 5436.7 1637.2H5444.75C5444.29 1643.73 5443.94 1651.55 5443.7 1660.65C5443.47 1669.52 5443.35 1681.53 5443.35 1696.7H5435.3C5433.9 1688.07 5431.45 1679.67 5427.95 1671.5C5424.69 1663.33 5419.79 1656.68 5413.25 1651.55C5406.72 1646.18 5398.2 1643.5 5387.7 1643.5C5379.54 1643.5 5372.65 1645.83 5367.05 1650.5C5361.69 1654.93 5359 1661.58 5359 1670.45C5359 1677.45 5361.1 1683.52 5365.3 1688.65C5369.5 1693.55 5374.99 1698.22 5381.75 1702.65C5388.52 1706.85 5395.87 1711.52 5403.8 1716.65C5412.67 1722.25 5420.72 1727.97 5427.95 1733.8C5435.19 1739.63 5440.9 1746.05 5445.1 1753.05C5449.54 1760.05 5451.75 1768.33 5451.75 1777.9C5451.75 1788.63 5448.95 1797.62 5443.35 1804.85C5437.75 1812.08 5430.4 1817.57 5421.3 1821.3C5412.44 1825.03 5402.64 1826.9 5391.9 1826.9C5386.77 1826.9 5381.87 1826.43 5377.2 1825.5C5372.77 1824.8 5368.45 1823.63 5364.25 1822C5361.92 1820.83 5359.47 1819.43 5356.9 1817.8C5354.57 1816.17 5352.24 1814.42 5349.9 1812.55C5347.57 1810.68 5345.47 1810.8 5343.6 1812.9C5341.74 1814.77 5340.34 1818.62 5339.4 1824.45H5331.35C5331.82 1816.98 5332.17 1807.88 5332.4 1797.15C5332.64 1786.42 5332.75 1772.18 5332.75 1754.45H5340.8C5342.44 1767.52 5344.77 1778.95 5347.8 1788.75C5350.84 1798.55 5355.62 1806.25 5362.15 1811.85C5368.69 1817.22 5377.79 1819.9 5389.45 1819.9C5394.12 1819.9 5398.79 1818.85 5403.45 1816.75C5408.35 1814.65 5412.44 1811.15 5415.7 1806.25C5418.97 1801.35 5420.6 1794.82 5420.6 1786.65C5420.6 1776.38 5416.87 1767.98 5409.4 1761.45C5401.94 1754.92 5392.49 1748.03 5381.05 1740.8C5372.65 1735.43 5364.72 1730.07 5357.25 1724.7C5350.02 1719.33 5344.07 1713.27 5339.4 1706.5C5334.97 1699.73 5332.75 1691.57 5332.75 1682C5332.75 1671.5 5335.09 1662.98 5339.75 1656.45C5344.65 1649.68 5351.07 1644.78 5359 1641.75C5366.94 1638.48 5375.45 1636.85 5384.55 1636.85Z" fill="white"/>
</svg>
