<svg width="2199" height="1104" viewBox="0 0 2199 1104" fill="none" xmlns="http://www.w3.org/2000/svg">
<path d="M342 280.5C361.667 280.5 376.833 282.667 387.5 287C398.167 291 407.333 295.333 415 300C419 302.333 422.167 304.167 424.5 305.5C427.167 306.5 429.667 307 432 307C435.333 307 437.667 305.167 439 301.5C440.667 297.833 442 292.333 443 285H454.5C454.167 291.333 453.667 299 453 308C452.667 316.667 452.333 328.167 452 342.5C452 356.833 452 375.667 452 399H440.5C439.167 381.667 435.167 364.833 428.5 348.5C421.833 332.167 412.333 318.833 400 308.5C388 297.833 373.167 292.5 355.5 292.5C339.5 292.5 326.333 297 316 306C305.667 315 300.5 327.5 300.5 343.5C300.5 356.833 303.833 368.333 310.5 378C317.167 387.333 326.833 396.5 339.5 405.5C352.5 414.5 368.167 425.333 386.5 438C402.5 448.333 416.833 458.667 429.5 469C442.167 479.333 452.333 491 460 504C467.667 517 471.5 532.5 471.5 550.5C471.5 572.5 465.667 590.667 454 605C442.667 619.333 427.667 630.167 409 637.5C390.333 644.5 369.833 648 347.5 648C326.833 648 310.333 646 298 642C285.667 638 275.333 633.833 267 629.5C259.667 624.833 254 622.5 250 622.5C246.667 622.5 244.167 624.333 242.5 628C241.167 631.667 240 637.167 239 644.5H227.5C228.167 636.5 228.5 627.167 228.5 616.5C228.833 605.833 229 592 229 575C229.333 557.667 229.5 535.833 229.5 509.5H241C242.333 531.5 246 552.167 252 571.5C258.333 590.5 267.833 605.833 280.5 617.5C293.5 629.167 310.667 635 332 635C343.667 635 354 633 363 629C372.333 624.667 379.833 618.333 385.5 610C391.167 601.667 394 591.333 394 579C394 565 390.667 552.833 384 542.5C377.667 532.167 368.833 522.5 357.5 513.5C346.5 504.5 333.667 495.333 319 486C303.333 475.667 288.667 465.333 275 455C261.333 444.667 250.333 432.833 242 419.5C234 406.167 230 390.333 230 372C230 351 235.167 333.833 245.5 320.5C256.167 306.833 270 296.833 287 290.5C304.333 283.833 322.667 280.5 342 280.5ZM752.992 377V586.5C752.992 601.5 755.326 612.667 759.992 620C764.659 627 772.992 630.5 784.992 630.5V641C774.659 640 764.326 639.5 753.992 639.5C739.992 639.5 726.992 640 714.992 641C702.992 642 691.659 643.833 680.992 646.5V601.5C672.992 618.167 661.826 630.167 647.492 637.5C633.492 644.5 617.826 648 600.492 648C586.492 648 575.159 646.167 566.492 642.5C557.826 638.833 550.992 634.167 545.992 628.5C540.326 622.167 536.326 613.833 533.992 603.5C531.659 593.167 530.492 579.833 530.492 563.5V437C530.492 422 528.159 411 523.492 404C519.159 396.667 510.826 393 498.492 393V382.5C509.159 383.5 519.492 384 529.492 384C543.492 384 556.492 383.5 568.492 382.5C580.826 381.167 592.159 379.333 602.492 377V584C602.492 592.333 603.159 599.667 604.492 606C606.159 612.333 609.159 617.333 613.492 621C617.826 624.333 624.159 626 632.492 626C641.492 626 649.492 623.5 656.492 618.5C663.826 613.5 669.659 606.667 673.992 598C678.659 589 680.992 579 680.992 568V437C680.992 422 678.659 411 673.992 404C669.659 396.667 661.326 393 648.992 393V382.5C659.659 383.5 669.992 384 679.992 384C693.992 384 706.992 383.5 718.992 382.5C731.326 381.167 742.659 379.333 752.992 377ZM993.215 375.5C1007.21 375.5 1018.55 377.333 1027.21 381C1036.21 384.333 1043.21 389 1048.21 395C1053.55 401.333 1057.38 409.5 1059.71 419.5C1062.38 429.5 1063.71 443 1063.71 460V594.5C1063.71 608.5 1066.05 618 1070.71 623C1075.71 628 1084.05 630.5 1095.71 630.5V641C1089.38 640.667 1079.88 640.333 1067.21 640C1054.55 639.333 1042.05 639 1029.71 639C1017.05 639 1004.55 639.333 992.215 640C980.215 640.333 971.048 640.667 964.715 641V630.5C974.715 630.5 981.715 628 985.715 623C989.715 618 991.715 608.5 991.715 594.5V439C991.715 430.667 990.882 423.5 989.215 417.5C987.548 411.167 984.548 406.333 980.215 403C975.882 399.333 969.382 397.5 960.715 397.5C951.715 397.5 943.382 400 935.715 405C928.382 410 922.382 417 917.715 426C913.382 434.667 911.215 444.5 911.215 455.5V594.5C911.215 608.5 913.215 618 917.215 623C921.548 628 928.548 630.5 938.215 630.5V641C932.215 640.667 923.382 640.333 911.715 640C900.382 639.333 888.548 639 876.215 639C863.548 639 850.548 639.333 837.215 640C823.882 640.333 813.882 640.667 807.215 641V630.5C818.882 630.5 827.048 628 831.715 623C836.715 618 839.215 608.5 839.215 594.5V437C839.215 422 836.882 411 832.215 404C827.882 396.667 819.548 393 807.215 393V382.5C817.882 383.5 828.215 384 838.215 384C852.215 384 865.215 383.5 877.215 382.5C889.548 381.167 900.882 379.333 911.215 377V422C919.548 405 930.882 393 945.215 386C959.548 379 975.548 375.5 993.215 375.5ZM1229.47 382.5V393C1222.14 393 1215.64 393.5 1209.97 394.5C1204.64 395.167 1200.97 397.5 1198.97 401.5C1197.31 405.5 1197.97 412 1200.97 421L1248.47 569.5L1241.97 576.5L1300.47 382L1310.47 386.5L1233.97 642C1228.64 641.667 1223.31 641.5 1217.97 641.5C1212.64 641.5 1207.14 641.667 1201.47 642L1122.47 421C1117.81 407.667 1112.64 399.667 1106.97 397C1101.64 394.333 1097.14 393 1093.47 393V382.5C1104.14 383.5 1115.14 384.333 1126.47 385C1138.14 385.333 1150.81 385.5 1164.47 385.5C1174.81 385.5 1185.64 385.167 1196.97 384.5C1208.64 383.833 1219.47 383.167 1229.47 382.5ZM1490.47 382.5V392.5C1484.14 394.167 1478.14 398 1472.47 404C1466.81 410 1461.47 420.5 1456.47 435.5L1389.97 642C1384.64 641.667 1379.14 641.5 1373.47 641.5C1368.14 641.5 1362.81 641.667 1357.47 642L1286.97 449.5L1300.47 382C1306.47 382.333 1312.47 382.5 1318.47 382.5C1324.81 382.167 1330.97 382 1336.97 382L1405.47 584L1399.97 578.5L1433.47 472.5C1439.14 454.167 1441.31 439.333 1439.97 428C1438.64 416.667 1434.64 408.167 1427.97 402.5C1421.31 396.833 1412.31 393.5 1400.97 392.5V382.5C1406.31 382.833 1411.97 383.167 1417.97 383.5C1424.31 383.5 1430.47 383.667 1436.47 384C1442.81 384 1448.14 384 1452.47 384C1459.14 384 1465.97 383.833 1472.97 383.5C1480.31 383.167 1486.14 382.833 1490.47 382.5ZM1565.67 644.5C1550.67 644.5 1538.17 641.667 1528.17 636C1518.17 630.333 1510.83 622.833 1506.17 613.5C1501.5 603.833 1499.17 593.333 1499.17 582C1499.17 567.667 1502.33 556 1508.67 547C1515.33 538 1523.83 530.667 1534.17 525C1544.5 519.333 1555.33 514.667 1566.67 511C1578.33 507.333 1589.33 503.833 1599.67 500.5C1610.33 496.833 1618.83 492.667 1625.17 488C1631.83 483 1635.17 476.667 1635.17 469V430C1635.17 421.333 1633.67 413.667 1630.67 407C1628 400 1623.67 394.667 1617.67 391C1612 387.333 1604.5 385.5 1595.17 385.5C1588.5 385.5 1581.83 386.5 1575.17 388.5C1568.5 390.167 1563 393.167 1558.67 397.5C1568 400.833 1575.17 406 1580.17 413C1585.5 419.667 1588.17 427.333 1588.17 436C1588.17 447.333 1584.17 456.333 1576.17 463C1568.5 469.667 1559.33 473 1548.67 473C1536.67 473 1527.5 469.333 1521.17 462C1515.17 454.333 1512.17 445.167 1512.17 434.5C1512.17 424.833 1514.5 416.833 1519.17 410.5C1524.17 404.167 1531 398.167 1539.67 392.5C1549 387.167 1560.17 383 1573.17 380C1586.5 377 1600.83 375.5 1616.17 375.5C1631.5 375.5 1645.33 377.167 1657.67 380.5C1670 383.5 1680.33 389.167 1688.67 397.5C1696.33 405.167 1701.33 414.667 1703.67 426C1706 437 1707.17 451 1707.17 468V604C1707.17 612.333 1708 618.167 1709.67 621.5C1711.33 624.5 1714.17 626 1718.17 626C1721.17 626 1724 625.167 1726.67 623.5C1729.67 621.833 1732.83 619.833 1736.17 617.5L1741.17 626C1734.17 632 1726 636.667 1716.67 640C1707.67 643 1697.5 644.5 1686.17 644.5C1673.83 644.5 1664 642.833 1656.67 639.5C1649.33 635.833 1644 631 1640.67 625C1637.67 619 1636.17 612 1636.17 604C1628.17 616.667 1618.5 626.667 1607.17 634C1595.83 641 1582 644.5 1565.67 644.5ZM1601.17 612.5C1607.83 612.5 1613.83 611 1619.17 608C1624.83 604.667 1630.17 599.333 1635.17 592V489.5C1632.17 494.5 1628 499 1622.67 503C1617.33 507 1611.67 511.167 1605.67 515.5C1599.67 519.5 1593.83 524 1588.17 529C1582.83 534 1578.5 540.167 1575.17 547.5C1571.83 554.833 1570.17 563.667 1570.17 574C1570.17 587 1573 596.667 1578.67 603C1584.33 609.333 1591.83 612.5 1601.17 612.5ZM1995.56 382.5V392.5C1989.23 394.167 1983.23 398.167 1977.56 404.5C1971.9 410.5 1966.4 420.833 1961.06 435.5L1890.56 633.5L1872.06 668.5L1763.06 421C1757.4 408 1751.73 400.167 1746.06 397.5C1740.73 394.5 1736.06 393 1732.06 393V382.5C1743.06 383.5 1754.4 384.333 1766.06 385C1778.06 385.333 1789.56 385.5 1800.56 385.5C1814.23 385.5 1826.73 385.167 1838.06 384.5C1849.4 383.833 1860.06 383.167 1870.06 382.5V393C1863.4 393 1857.06 393.5 1851.06 394.5C1845.4 395.167 1841.4 397.5 1839.06 401.5C1837.06 405.167 1838.06 411.667 1842.06 421L1905.06 573L1900.56 576L1937.56 472.5C1943.9 454.5 1946.56 439.833 1945.56 428.5C1944.56 416.833 1940.9 408.167 1934.56 402.5C1928.23 396.5 1919.56 393.167 1908.56 392.5V382.5C1913.9 382.833 1919.4 383.167 1925.06 383.5C1930.73 383.5 1936.4 383.667 1942.06 384C1947.73 384 1952.73 384 1957.06 384C1963.73 384 1970.73 383.833 1978.06 383.5C1985.4 383.167 1991.23 382.833 1995.56 382.5ZM1890.56 633.5L1871.56 687C1868.23 695.333 1864.73 702.333 1861.06 708C1857.73 714 1853.9 718.833 1849.56 722.5C1844.9 726.5 1838.9 729.5 1831.56 731.5C1824.23 733.833 1815.73 735 1806.06 735C1798.06 735 1789.73 733.667 1781.06 731C1772.73 728.333 1765.73 724 1760.06 718C1754.4 712 1751.56 704.333 1751.56 695C1751.56 684.667 1755.23 676.333 1762.56 670C1769.9 664 1779.56 661 1791.56 661C1802.56 661 1811.56 663.667 1818.56 669C1825.56 674.333 1829.06 682.167 1829.06 692.5C1829.06 699.167 1826.9 705.5 1822.56 711.5C1818.56 717.5 1812.4 722 1804.06 725C1805.73 725.333 1807.73 725.5 1810.06 725.5C1812.4 725.5 1814.23 725.5 1815.56 725.5C1825.56 725.5 1834.4 722.333 1842.06 716C1849.73 709.667 1856.06 699.667 1861.06 686L1878.56 634.5L1890.56 633.5Z" fill="white"/>
<path d="M429.02 838.77C434.687 838.77 438.993 839.45 441.94 840.81C444.887 842.057 447.493 843.473 449.76 845.06C451.12 845.853 452.197 846.477 452.99 846.93C453.897 847.27 454.747 847.44 455.54 847.44C456.673 847.44 457.467 846.817 457.92 845.57C458.487 844.323 458.94 842.453 459.28 839.96H463.19C463.077 841.887 462.907 844.21 462.68 846.93C462.567 849.537 462.453 853.05 462.34 857.47C462.34 861.777 462.34 867.5 462.34 874.64H458.43C458.09 869.2 456.9 863.987 454.86 859C452.82 854.013 449.817 849.933 445.85 846.76C441.997 843.587 436.897 842 430.55 842C424.543 842 419.557 843.813 415.59 847.44C411.737 851.067 409.81 855.827 409.81 861.72C409.81 866.82 411.113 871.127 413.72 874.64C416.327 878.04 419.783 881.157 424.09 883.99C428.51 886.71 433.27 889.657 438.37 892.83C444.263 896.457 449.477 900.083 454.01 903.71C458.657 907.223 462.283 911.133 464.89 915.44C467.61 919.747 468.97 924.96 468.97 931.08C468.97 938.333 467.327 944.34 464.04 949.1C460.753 953.86 456.39 957.43 450.95 959.81C445.51 962.19 439.503 963.38 432.93 963.38C426.923 963.38 422.163 962.7 418.65 961.34C415.137 959.98 412.133 958.563 409.64 957.09C407.147 955.503 405.22 954.71 403.86 954.71C402.727 954.71 401.877 955.333 401.31 956.58C400.857 957.827 400.46 959.697 400.12 962.19H396.21C396.437 959.81 396.55 957.033 396.55 953.86C396.663 950.573 396.72 946.323 396.72 941.11C396.833 935.897 396.89 929.323 396.89 921.39H400.8C401.253 928.19 402.5 934.537 404.54 940.43C406.693 946.323 409.923 951.083 414.23 954.71C418.65 958.223 424.487 959.98 431.74 959.98C435.48 959.98 438.993 959.243 442.28 957.77C445.68 956.183 448.457 953.747 450.61 950.46C452.763 947.06 453.84 942.697 453.84 937.37C453.84 932.723 452.707 928.7 450.44 925.3C448.287 921.787 445.227 918.557 441.26 915.61C437.293 912.55 432.647 909.433 427.32 906.26C421.993 902.973 417.007 899.63 412.36 896.23C407.713 892.83 403.973 888.92 401.14 884.5C398.42 879.967 397.06 874.527 397.06 868.18C397.06 861.493 398.533 855.997 401.48 851.69C404.54 847.27 408.507 844.04 413.38 842C418.253 839.847 423.467 838.77 429.02 838.77ZM523.887 871.07C531.14 871.07 537.657 872.657 543.437 875.83C549.217 879.003 553.807 883.99 557.207 890.79C560.72 897.59 562.477 906.43 562.477 917.31C562.477 928.19 560.72 937.03 557.207 943.83C553.807 950.517 549.217 955.447 543.437 958.62C537.657 961.793 531.14 963.38 523.887 963.38C516.747 963.38 510.23 961.793 504.337 958.62C498.557 955.447 493.91 950.517 490.397 943.83C486.997 937.03 485.297 928.19 485.297 917.31C485.297 906.43 486.997 897.59 490.397 890.79C493.91 883.99 498.557 879.003 504.337 875.83C510.23 872.657 516.747 871.07 523.887 871.07ZM523.887 874.47C517.427 874.47 512.1 877.813 507.907 884.5C503.827 891.187 501.787 902.123 501.787 917.31C501.787 932.497 503.827 943.433 507.907 950.12C512.1 956.693 517.427 959.98 523.887 959.98C530.347 959.98 535.617 956.693 539.697 950.12C543.89 943.433 545.987 932.497 545.987 917.31C545.987 902.123 543.89 891.187 539.697 884.5C535.617 877.813 530.347 874.47 523.887 874.47ZM617.361 828.06C620.535 828.06 623.311 828.513 625.691 829.42C628.185 830.213 630.338 831.29 632.151 832.65C633.851 834.01 635.155 835.597 636.061 837.41C636.968 839.223 637.421 841.15 637.421 843.19C637.421 845.797 636.571 847.95 634.871 849.65C633.171 851.35 631.018 852.2 628.411 852.2C625.918 852.2 623.708 851.407 621.781 849.82C619.968 848.12 619.061 845.853 619.061 843.02C619.061 840.64 619.685 838.713 620.931 837.24C622.291 835.767 624.048 834.803 626.201 834.35C625.861 833.33 624.955 832.48 623.481 831.8C622.121 831.007 620.251 830.61 617.871 830.61C615.265 830.61 612.998 831.177 611.071 832.31C609.258 833.443 607.841 834.973 606.821 836.9C605.461 839.28 604.611 842.85 604.271 847.61C603.931 852.257 603.761 859.453 603.761 869.2V873.62H621.951V877.02H603.761V943.49C603.761 949.043 605.348 952.783 608.521 954.71C611.808 956.523 616.228 957.43 621.781 957.43V961C619.175 960.887 615.491 960.773 610.731 960.66C605.971 960.433 600.928 960.32 595.601 960.32C591.748 960.32 587.895 960.433 584.041 960.66C580.301 960.773 577.468 960.887 575.541 961V957.43C580.188 957.43 583.475 956.58 585.401 954.88C587.441 953.18 588.461 949.95 588.461 945.19V877.02H574.861V873.62H588.461C588.461 866.933 588.745 861.323 589.311 856.79C589.878 852.257 590.785 848.403 592.031 845.23C593.278 841.943 594.978 839.053 597.131 836.56C599.398 833.953 602.288 831.913 605.801 830.44C609.315 828.853 613.168 828.06 617.361 828.06ZM659.187 845.23V873.62H684.347V877.02H659.187V942.81C659.187 948.137 660.15 951.877 662.077 954.03C664.003 956.183 666.667 957.26 670.067 957.26C673.467 957.26 676.413 955.9 678.907 953.18C681.4 950.347 683.553 945.643 685.367 939.07L688.767 939.92C687.633 946.493 685.367 952.047 681.967 956.58C678.68 961.113 673.58 963.38 666.667 963.38C662.813 963.38 659.64 962.87 657.147 961.85C654.653 960.943 652.443 959.583 650.517 957.77C648.023 955.163 646.267 952.047 645.247 948.42C644.34 944.793 643.887 939.977 643.887 933.97V877.02H627.567V873.62H643.887V847.61C646.72 847.497 649.44 847.27 652.047 846.93C654.653 846.59 657.033 846.023 659.187 845.23ZM724.044 873.45V877.02C721.211 877.02 718.718 877.247 716.564 877.7C714.411 878.04 712.994 879.173 712.314 881.1C711.634 883.027 712.144 886.427 713.844 891.3L731.524 941.96L730.334 941.79L755.324 872.77L758.724 874.13L727.614 961.85C727.161 961.85 726.708 961.85 726.254 961.85C725.801 961.85 725.291 961.85 724.724 961.85L696.844 886.54C695.031 882.007 693.218 879.287 691.404 878.38C689.704 877.473 688.231 877.02 686.984 877.02V873.45C689.251 873.79 691.574 874.073 693.954 874.3C696.448 874.413 699.111 874.47 701.944 874.47C705.458 874.47 709.141 874.357 712.994 874.13C716.961 873.903 720.644 873.677 724.044 873.45ZM817.374 873.45V876.85C815.221 877.077 813.181 878.04 811.254 879.74C809.441 881.327 807.798 884.33 806.324 888.75L781.674 961.85C781.221 961.85 780.768 961.85 780.314 961.85C779.861 961.85 779.351 961.85 778.784 961.85L751.414 892.32L755.324 872.77C756.004 872.77 756.628 872.77 757.194 872.77C757.874 872.77 758.554 872.77 759.234 872.77L785.754 942.98L784.394 944L801.224 892.83C802.471 888.977 802.924 885.973 802.584 883.82C802.358 881.553 801.224 879.91 799.184 878.89C797.258 877.757 794.254 877.077 790.174 876.85V873.45C792.214 873.563 793.971 873.677 795.444 873.79C796.918 873.79 798.334 873.847 799.694 873.96C801.168 873.96 802.754 873.96 804.454 873.96C807.061 873.96 809.384 873.903 811.424 873.79C813.578 873.677 815.561 873.563 817.374 873.45ZM845.879 962.19C841.232 962.19 837.209 961.34 833.809 959.64C830.409 957.827 827.802 955.333 825.989 952.16C824.289 948.987 823.439 945.303 823.439 941.11C823.439 936.123 824.572 932.043 826.839 928.87C829.219 925.697 832.222 923.147 835.849 921.22C839.475 919.293 843.272 917.707 847.239 916.46C851.319 915.1 855.172 913.853 858.799 912.72C862.425 911.473 865.372 910.057 867.639 908.47C870.019 906.883 871.209 904.787 871.209 902.18V891.64C871.209 886.88 870.472 883.253 868.999 880.76C867.639 878.267 865.769 876.623 863.389 875.83C861.009 874.923 858.345 874.47 855.399 874.47C852.565 874.47 849.505 874.867 846.219 875.66C843.045 876.453 840.495 878.097 838.569 880.59C840.722 881.043 842.592 882.177 844.179 883.99C845.765 885.803 846.559 888.127 846.559 890.96C846.559 893.793 845.652 896.06 843.839 897.76C842.025 899.347 839.702 900.14 836.869 900.14C833.582 900.14 831.145 899.12 829.559 897.08C828.085 894.927 827.349 892.547 827.349 889.94C827.349 886.993 828.085 884.613 829.559 882.8C831.032 880.987 832.902 879.287 835.169 877.7C837.775 875.887 841.119 874.357 845.199 873.11C849.392 871.75 854.095 871.07 859.309 871.07C863.955 871.07 867.922 871.637 871.209 872.77C874.495 873.79 877.215 875.32 879.369 877.36C882.315 880.08 884.242 883.423 885.149 887.39C886.055 891.243 886.509 895.89 886.509 901.33V948.59C886.509 951.423 886.905 953.463 887.699 954.71C888.605 955.957 889.965 956.58 891.779 956.58C893.025 956.58 894.215 956.297 895.349 955.73C896.482 955.163 897.842 954.257 899.429 953.01L901.299 955.9C898.919 957.713 896.652 959.243 894.499 960.49C892.345 961.623 889.455 962.19 885.829 962.19C882.542 962.19 879.822 961.623 877.669 960.49C875.515 959.357 873.872 957.713 872.739 955.56C871.719 953.293 871.209 950.46 871.209 947.06C868.149 952.16 864.465 955.957 860.159 958.45C855.965 960.943 851.205 962.19 845.879 962.19ZM851.999 955.39C855.739 955.39 859.195 954.313 862.369 952.16C865.655 950.007 868.602 946.777 871.209 942.47V909.15C869.849 911.077 867.865 912.72 865.259 914.08C862.652 915.327 859.819 916.63 856.759 917.99C853.699 919.237 850.752 920.767 847.919 922.58C845.199 924.28 842.932 926.547 841.119 929.38C839.305 932.213 838.399 935.897 838.399 940.43C838.399 944.963 839.589 948.59 841.969 951.31C844.462 954.03 847.805 955.39 851.999 955.39ZM959.277 871.07C962.337 871.07 965 871.693 967.267 872.94C969.647 874.187 971.46 875.83 972.707 877.87C974.067 879.797 974.747 882.007 974.747 884.5C974.747 887.333 973.84 889.827 972.027 891.98C970.327 894.133 968.003 895.21 965.057 895.21C962.677 895.21 960.58 894.473 958.767 893C956.953 891.413 956.047 889.203 956.047 886.37C956.047 884.217 956.613 882.403 957.747 880.93C958.993 879.343 960.353 878.097 961.827 877.19C961.033 876.057 959.843 875.49 958.257 875.49C954.743 875.49 951.513 876.567 948.567 878.72C945.62 880.76 943.127 883.423 941.087 886.71C939.047 889.997 937.46 893.51 936.327 897.25C935.193 900.877 934.627 904.277 934.627 907.45V943.49C934.627 949.043 936.213 952.783 939.387 954.71C942.673 956.523 947.093 957.43 952.647 957.43V961C950.04 960.887 946.357 960.773 941.597 960.66C936.837 960.433 931.793 960.32 926.467 960.32C922.613 960.32 918.76 960.433 914.907 960.66C911.167 960.773 908.333 960.887 906.407 961V957.43C911.053 957.43 914.34 956.58 916.267 954.88C918.307 953.18 919.327 949.95 919.327 945.19V891.98C919.327 886.88 918.42 883.14 916.607 880.76C914.793 878.267 911.393 877.02 906.407 877.02V873.45C910.033 873.79 913.547 873.96 916.947 873.96C920.233 873.96 923.35 873.79 926.297 873.45C929.357 872.997 932.133 872.373 934.627 871.58V892.83C935.873 889.543 937.63 886.257 939.897 882.97C942.277 879.57 945.11 876.737 948.397 874.47C951.683 872.203 955.31 871.07 959.277 871.07ZM1020.1 871.07C1030.07 871.07 1037.84 874.13 1043.39 880.25C1049.06 886.257 1051.89 895.663 1051.89 908.47H991.879L991.709 905.24H1035.57C1035.8 899.687 1035.34 894.587 1034.21 889.94C1033.08 885.18 1031.26 881.383 1028.77 878.55C1026.39 875.717 1023.27 874.3 1019.42 874.3C1014.21 874.3 1009.56 876.907 1005.48 882.12C1001.51 887.333 999.133 895.607 998.339 906.94L998.849 907.62C998.623 909.32 998.453 911.19 998.339 913.23C998.226 915.27 998.169 917.31 998.169 919.35C998.169 927.057 999.416 933.687 1001.91 939.24C1004.4 944.793 1007.63 949.043 1011.6 951.99C1015.68 954.823 1019.87 956.24 1024.18 956.24C1027.58 956.24 1030.81 955.73 1033.87 954.71C1036.93 953.577 1039.76 951.763 1042.37 949.27C1044.98 946.777 1047.24 943.433 1049.17 939.24L1052.57 940.6C1051.32 944.34 1049.28 947.967 1046.45 951.48C1043.62 954.993 1040.05 957.883 1035.74 960.15C1031.43 962.303 1026.45 963.38 1020.78 963.38C1012.62 963.38 1005.59 961.51 999.699 957.77C993.919 954.03 989.443 948.873 986.269 942.3C983.209 935.613 981.679 927.963 981.679 919.35C981.679 909.377 983.266 900.82 986.439 893.68C989.613 886.427 994.089 880.873 999.869 877.02C1005.65 873.053 1012.39 871.07 1020.1 871.07ZM1145.71 838.77C1151.38 838.77 1155.68 839.45 1158.63 840.81C1161.58 842.057 1164.18 843.473 1166.45 845.06C1167.81 845.853 1168.89 846.477 1169.68 846.93C1170.59 847.27 1171.44 847.44 1172.23 847.44C1173.36 847.44 1174.16 846.817 1174.61 845.57C1175.18 844.323 1175.63 842.453 1175.97 839.96H1179.88C1179.77 841.887 1179.6 844.21 1179.37 846.93C1179.26 849.537 1179.14 853.05 1179.03 857.47C1179.03 861.777 1179.03 867.5 1179.03 874.64H1175.12C1174.78 869.2 1173.59 863.987 1171.55 859C1169.51 854.013 1166.51 849.933 1162.54 846.76C1158.69 843.587 1153.59 842 1147.24 842C1141.23 842 1136.25 843.813 1132.28 847.44C1128.43 851.067 1126.5 855.827 1126.5 861.72C1126.5 866.82 1127.8 871.127 1130.41 874.64C1133.02 878.04 1136.47 881.157 1140.78 883.99C1145.2 886.71 1149.96 889.657 1155.06 892.83C1160.95 896.457 1166.17 900.083 1170.7 903.71C1175.35 907.223 1178.97 911.133 1181.58 915.44C1184.3 919.747 1185.66 924.96 1185.66 931.08C1185.66 938.333 1184.02 944.34 1180.73 949.1C1177.44 953.86 1173.08 957.43 1167.64 959.81C1162.2 962.19 1156.19 963.38 1149.62 963.38C1143.61 963.38 1138.85 962.7 1135.34 961.34C1131.83 959.98 1128.82 958.563 1126.33 957.09C1123.84 955.503 1121.91 954.71 1120.55 954.71C1119.42 954.71 1118.57 955.333 1118 956.58C1117.55 957.827 1117.15 959.697 1116.81 962.19H1112.9C1113.13 959.81 1113.24 957.033 1113.24 953.86C1113.35 950.573 1113.41 946.323 1113.41 941.11C1113.52 935.897 1113.58 929.323 1113.58 921.39H1117.49C1117.94 928.19 1119.19 934.537 1121.23 940.43C1123.38 946.323 1126.61 951.083 1130.92 954.71C1135.34 958.223 1141.18 959.98 1148.43 959.98C1152.17 959.98 1155.68 959.243 1158.97 957.77C1162.37 956.183 1165.15 953.747 1167.3 950.46C1169.45 947.06 1170.53 942.697 1170.53 937.37C1170.53 932.723 1169.4 928.7 1167.13 925.3C1164.98 921.787 1161.92 918.557 1157.95 915.61C1153.98 912.55 1149.34 909.433 1144.01 906.26C1138.68 902.973 1133.7 899.63 1129.05 896.23C1124.4 892.83 1120.66 888.92 1117.83 884.5C1115.11 879.967 1113.75 874.527 1113.75 868.18C1113.75 861.493 1115.22 855.997 1118.17 851.69C1121.23 847.27 1125.2 844.04 1130.07 842C1134.94 839.847 1140.16 838.77 1145.71 838.77ZM1240.58 871.07C1247.83 871.07 1254.35 872.657 1260.13 875.83C1265.91 879.003 1270.5 883.99 1273.9 890.79C1277.41 897.59 1279.17 906.43 1279.17 917.31C1279.17 928.19 1277.41 937.03 1273.9 943.83C1270.5 950.517 1265.91 955.447 1260.13 958.62C1254.35 961.793 1247.83 963.38 1240.58 963.38C1233.44 963.38 1226.92 961.793 1221.03 958.62C1215.25 955.447 1210.6 950.517 1207.09 943.83C1203.69 937.03 1201.99 928.19 1201.99 917.31C1201.99 906.43 1203.69 897.59 1207.09 890.79C1210.6 883.99 1215.25 879.003 1221.03 875.83C1226.92 872.657 1233.44 871.07 1240.58 871.07ZM1240.58 874.47C1234.12 874.47 1228.79 877.813 1224.6 884.5C1220.52 891.187 1218.48 902.123 1218.48 917.31C1218.48 932.497 1220.52 943.433 1224.6 950.12C1228.79 956.693 1234.12 959.98 1240.58 959.98C1247.04 959.98 1252.31 956.693 1256.39 950.12C1260.58 943.433 1262.68 932.497 1262.68 917.31C1262.68 902.123 1260.58 891.187 1256.39 884.5C1252.31 877.813 1247.04 874.47 1240.58 874.47ZM1317.43 827.72V945.19C1317.43 949.95 1318.39 953.18 1320.32 954.88C1322.36 956.58 1325.7 957.43 1330.35 957.43V961C1328.42 960.887 1325.48 960.773 1321.51 960.66C1317.66 960.433 1313.75 960.32 1309.78 960.32C1305.93 960.32 1302.02 960.433 1298.05 960.66C1294.08 960.773 1291.14 960.887 1289.21 961V957.43C1293.86 957.43 1297.14 956.58 1299.07 954.88C1301.11 953.18 1302.13 949.95 1302.13 945.19V848.12C1302.13 843.02 1301.22 839.28 1299.41 836.9C1297.6 834.407 1294.2 833.16 1289.21 833.16V829.59C1292.84 829.93 1296.35 830.1 1299.75 830.1C1303.04 830.1 1306.15 829.93 1309.1 829.59C1312.16 829.137 1314.94 828.513 1317.43 827.72ZM1416.22 871.58V942.64C1416.22 947.74 1417.13 951.537 1418.94 954.03C1420.87 956.41 1424.27 957.6 1429.14 957.6V961.17C1425.63 960.83 1422.12 960.66 1418.6 960.66C1415.32 960.66 1412.14 960.83 1409.08 961.17C1406.14 961.51 1403.42 962.133 1400.92 963.04V942.98C1398.09 950.347 1394.07 955.617 1388.85 958.79C1383.75 961.85 1378.48 963.38 1373.04 963.38C1369.08 963.38 1365.62 962.813 1362.67 961.68C1359.73 960.547 1357.29 958.96 1355.36 956.92C1353.21 954.653 1351.74 951.707 1350.94 948.08C1350.15 944.453 1349.75 939.977 1349.75 934.65V891.98C1349.75 886.88 1348.85 883.14 1347.03 880.76C1345.22 878.267 1341.82 877.02 1336.83 877.02V873.45C1340.46 873.79 1343.97 873.96 1347.37 873.96C1350.66 873.96 1353.78 873.79 1356.72 873.45C1359.78 872.997 1362.56 872.373 1365.05 871.58V938.39C1365.05 941.903 1365.28 945.133 1365.73 948.08C1366.19 951.027 1367.32 953.407 1369.13 955.22C1370.95 957.033 1373.89 957.94 1377.97 957.94C1382.39 957.94 1386.3 956.58 1389.7 953.86C1393.22 951.14 1395.94 947.457 1397.86 942.81C1399.9 938.163 1400.92 932.95 1400.92 927.17V891.98C1400.92 886.88 1400.02 883.14 1398.2 880.76C1396.39 878.267 1392.99 877.02 1388 877.02V873.45C1391.63 873.79 1395.14 873.96 1398.54 873.96C1401.83 873.96 1404.95 873.79 1407.89 873.45C1410.95 872.997 1413.73 872.373 1416.22 871.58ZM1465.19 845.23V873.62H1490.35V877.02H1465.19V942.81C1465.19 948.137 1466.16 951.877 1468.08 954.03C1470.01 956.183 1472.67 957.26 1476.07 957.26C1479.47 957.26 1482.42 955.9 1484.91 953.18C1487.41 950.347 1489.56 945.643 1491.37 939.07L1494.77 939.92C1493.64 946.493 1491.37 952.047 1487.97 956.58C1484.69 961.113 1479.59 963.38 1472.67 963.38C1468.82 963.38 1465.65 962.87 1463.15 961.85C1460.66 960.943 1458.45 959.583 1456.52 957.77C1454.03 955.163 1452.27 952.047 1451.25 948.42C1450.35 944.793 1449.89 939.977 1449.89 933.97V877.02H1433.57V873.62H1449.89V847.61C1452.73 847.497 1455.45 847.27 1458.05 846.93C1460.66 846.59 1463.04 846.023 1465.19 845.23ZM1517.3 830.95C1520.25 830.95 1522.8 832.027 1524.95 834.18C1527.1 836.333 1528.18 838.883 1528.18 841.83C1528.18 844.777 1527.1 847.327 1524.95 849.48C1522.8 851.633 1520.25 852.71 1517.3 852.71C1514.35 852.71 1511.8 851.633 1509.65 849.48C1507.5 847.327 1506.42 844.777 1506.42 841.83C1506.42 838.883 1507.5 836.333 1509.65 834.18C1511.8 832.027 1514.35 830.95 1517.3 830.95ZM1526.14 871.58V945.19C1526.14 949.95 1527.1 953.18 1529.03 954.88C1531.07 956.58 1534.41 957.43 1539.06 957.43V961C1537.13 960.887 1534.19 960.773 1530.22 960.66C1526.37 960.433 1522.46 960.32 1518.49 960.32C1514.64 960.32 1510.73 960.433 1506.76 960.66C1502.79 960.773 1499.85 960.887 1497.92 961V957.43C1502.57 957.43 1505.85 956.58 1507.78 954.88C1509.82 953.18 1510.84 949.95 1510.84 945.19V891.98C1510.84 886.88 1509.93 883.14 1508.12 880.76C1506.31 878.267 1502.91 877.02 1497.92 877.02V873.45C1501.55 873.79 1505.06 873.96 1508.46 873.96C1511.75 873.96 1514.86 873.79 1517.81 873.45C1520.87 872.997 1523.65 872.373 1526.14 871.58ZM1589.37 871.07C1596.63 871.07 1603.14 872.657 1608.92 875.83C1614.7 879.003 1619.29 883.99 1622.69 890.79C1626.21 897.59 1627.96 906.43 1627.96 917.31C1627.96 928.19 1626.21 937.03 1622.69 943.83C1619.29 950.517 1614.7 955.447 1608.92 958.62C1603.14 961.793 1596.63 963.38 1589.37 963.38C1582.23 963.38 1575.72 961.793 1569.82 958.62C1564.04 955.447 1559.4 950.517 1555.88 943.83C1552.48 937.03 1550.78 928.19 1550.78 917.31C1550.78 906.43 1552.48 897.59 1555.88 890.79C1559.4 883.99 1564.04 879.003 1569.82 875.83C1575.72 872.657 1582.23 871.07 1589.37 871.07ZM1589.37 874.47C1582.91 874.47 1577.59 877.813 1573.39 884.5C1569.31 891.187 1567.27 902.123 1567.27 917.31C1567.27 932.497 1569.31 943.433 1573.39 950.12C1577.59 956.693 1582.91 959.98 1589.37 959.98C1595.83 959.98 1601.1 956.693 1605.18 950.12C1609.38 943.433 1611.47 932.497 1611.47 917.31C1611.47 902.123 1609.38 891.187 1605.18 884.5C1601.1 877.813 1595.83 874.47 1589.37 874.47ZM1697.98 871.07C1702.29 871.07 1705.86 871.637 1708.69 872.77C1711.64 873.903 1714.07 875.49 1716 877.53C1718.15 879.797 1719.68 882.63 1720.59 886.03C1721.5 889.43 1721.95 894.02 1721.95 899.8V945.19C1721.95 949.95 1722.91 953.18 1724.84 954.88C1726.88 956.58 1730.22 957.43 1734.87 957.43V961C1732.94 960.887 1730 960.773 1726.03 960.66C1722.06 960.433 1718.21 960.32 1714.47 960.32C1710.73 960.32 1707.05 960.433 1703.42 960.66C1699.91 960.773 1697.24 960.887 1695.43 961V957.43C1699.51 957.43 1702.4 956.58 1704.1 954.88C1705.8 953.18 1706.65 949.95 1706.65 945.19V896.06C1706.65 892.547 1706.37 889.317 1705.8 886.37C1705.23 883.423 1703.93 881.043 1701.89 879.23C1699.96 877.417 1696.96 876.51 1692.88 876.51C1688.12 876.51 1683.93 877.87 1680.3 880.59C1676.79 883.31 1674.01 887.05 1671.97 891.81C1670.04 896.457 1669.08 901.67 1669.08 907.45V945.19C1669.08 949.95 1669.93 953.18 1671.63 954.88C1673.33 956.58 1676.22 957.43 1680.3 957.43V961C1678.49 960.887 1675.77 960.773 1672.14 960.66C1668.63 960.433 1665 960.32 1661.26 960.32C1657.52 960.32 1653.67 960.433 1649.7 960.66C1645.73 960.773 1642.79 960.887 1640.86 961V957.43C1645.51 957.43 1648.79 956.58 1650.72 954.88C1652.76 953.18 1653.78 949.95 1653.78 945.19V891.98C1653.78 886.88 1652.87 883.14 1651.06 880.76C1649.25 878.267 1645.85 877.02 1640.86 877.02V873.45C1644.49 873.79 1648 873.96 1651.4 873.96C1654.69 873.96 1657.8 873.79 1660.75 873.45C1663.81 872.997 1666.59 872.373 1669.08 871.58V891.64C1672.03 883.933 1676.11 878.607 1681.32 875.66C1686.65 872.6 1692.2 871.07 1697.98 871.07ZM1772.73 871.07C1777.26 871.07 1781.11 871.807 1784.29 873.28C1787.46 874.753 1789.78 876.113 1791.26 877.36C1795 880.42 1797.26 878.38 1798.06 871.24H1801.97C1801.74 874.413 1801.57 878.21 1801.46 882.63C1801.34 886.937 1801.29 892.773 1801.29 900.14H1797.38C1796.7 895.947 1795.51 891.867 1793.81 887.9C1792.22 883.933 1789.84 880.703 1786.67 878.21C1783.49 875.603 1779.36 874.3 1774.26 874.3C1770.29 874.3 1766.95 875.433 1764.23 877.7C1761.62 879.853 1760.32 883.083 1760.32 887.39C1760.32 890.79 1761.34 893.737 1763.38 896.23C1765.42 898.61 1768.08 900.877 1771.37 903.03C1774.65 905.07 1778.22 907.337 1782.08 909.83C1786.38 912.55 1790.29 915.327 1793.81 918.16C1797.32 920.993 1800.1 924.11 1802.14 927.51C1804.29 930.91 1805.37 934.933 1805.37 939.58C1805.37 944.793 1804.01 949.157 1801.29 952.67C1798.57 956.183 1795 958.847 1790.58 960.66C1786.27 962.473 1781.51 963.38 1776.3 963.38C1773.8 963.38 1771.42 963.153 1769.16 962.7C1767 962.36 1764.91 961.793 1762.87 961C1761.73 960.433 1760.54 959.753 1759.3 958.96C1758.16 958.167 1757.03 957.317 1755.9 956.41C1754.76 955.503 1753.74 955.56 1752.84 956.58C1751.93 957.487 1751.25 959.357 1750.8 962.19H1746.89C1747.11 958.563 1747.28 954.143 1747.4 948.93C1747.51 943.717 1747.57 936.803 1747.57 928.19H1751.48C1752.27 934.537 1753.4 940.09 1754.88 944.85C1756.35 949.61 1758.67 953.35 1761.85 956.07C1765.02 958.677 1769.44 959.98 1775.11 959.98C1777.37 959.98 1779.64 959.47 1781.91 958.45C1784.29 957.43 1786.27 955.73 1787.86 953.35C1789.44 950.97 1790.24 947.797 1790.24 943.83C1790.24 938.843 1788.42 934.763 1784.8 931.59C1781.17 928.417 1776.58 925.073 1771.03 921.56C1766.95 918.953 1763.09 916.347 1759.47 913.74C1755.95 911.133 1753.06 908.187 1750.8 904.9C1748.64 901.613 1747.57 897.647 1747.57 893C1747.57 887.9 1748.7 883.763 1750.97 880.59C1753.35 877.303 1756.46 874.923 1760.32 873.45C1764.17 871.863 1768.31 871.07 1772.73 871.07Z" fill="white"/>
</svg>
