<?xml version="1.0" encoding="utf-8"?>
<!-- Generator: Adobe Illustrator 27.5.0, SVG Export Plug-In . SVG Version: 6.00 Build 0)  -->
<svg version="1.1" xmlns="http://www.w3.org/2000/svg" xmlns:xlink="http://www.w3.org/1999/xlink" x="0px" y="0px"
	 viewBox="0 0 1122 1122" style="enable-background:new 0 0 1122 1122;" xml:space="preserve">
<g id="Bg">
	<rect id="XMLID_987_" x="0" y="0" style="fill:#5B534F00;" width="1122" height="1122"/>
</g>
<g id="Layer_2">
	<g id="XMLID_3416_">
		<g id="XMLID_3440_">
			<circle id="XMLID_3441_" style="fill:#2B4449;" cx="561" cy="558.03" r="310.913"/>
		</g>
		<g id="XMLID_3422_">
			<g id="XMLID_3431_">
				<g id="XMLID_3438_">
					<circle id="XMLID_3439_" style="fill:#B65B3C;" cx="561" cy="423.878" r="74.308"/>
				</g>
				<g id="XMLID_3436_">
					<circle id="XMLID_3437_" style="fill:#EBCB42;" cx="551.85" cy="423.878" r="74.308"/>
				</g>
				<g id="XMLID_3432_">
					<g id="XMLID_3433_">
						<path id="XMLID_3434_" style="fill:#037C75;" d="M552.924,466.146v-10.4c-5.972-0.103-12.15-1.957-15.753-4.532l2.471-6.898
							c3.707,2.471,9.062,4.427,14.828,4.427c7.31,0,12.253-4.221,12.253-10.091c0-5.663-4.016-9.164-11.636-12.253
							c-10.503-4.119-16.989-8.856-16.989-17.813c0-8.546,6.074-15.033,15.547-16.578v-10.4h6.385v9.989
							c6.178,0.206,10.4,1.853,13.385,3.604l-2.574,6.796c-2.163-1.236-6.384-3.502-12.973-3.502
							c-7.929,0-10.915,4.736-10.915,8.855c0,5.354,3.81,8.032,12.768,11.739c10.606,4.324,15.96,9.678,15.96,18.843
							c0,8.134-5.663,15.753-16.269,17.504v10.709H552.924z"/>
					</g>
				</g>
			</g>
			<g id="XMLID_3429_">
				<path id="XMLID_3430_" style="fill:#EBCB42;" d="M509.178,343.945c-4.454-7.171-9.227-14.126-14.315-20.863
					c-2.444-3.236-7.74,0.241-5.274,3.505c5.089,6.736,9.861,13.691,14.315,20.863C506.054,350.914,511.33,347.411,509.178,343.945z
					"/>
			</g>
			<g id="XMLID_3427_">
				<path id="XMLID_3428_" style="fill:#EBCB42;" d="M544.232,337.527c-1.744-8.861-2.631-17.861-2.796-26.887
					c-0.074-4.077-6.396-3.705-6.321,0.365c0.175,9.618,1.261,19.119,3.118,28.555C539.017,343.54,545.01,341.48,544.232,337.527z"
					/>
			</g>
			<g id="XMLID_3425_">
				<path id="XMLID_3426_" style="fill:#EBCB42;" d="M576.243,312.75c-4.266,7.309-7.333,15.203-9.171,23.463
					c-0.887,3.984,5.307,5.306,6.193,1.329c1.727-7.759,4.615-15.053,8.621-21.916C583.945,312.096,578.289,309.243,576.243,312.75z
					"/>
			</g>
			<g id="XMLID_3423_">
				<path id="XMLID_3424_" style="fill:#EBCB42;" d="M621.018,321.589c-6.844,6.951-12.716,14.737-17.587,23.187
					c-2.041,3.54,3.613,6.395,5.642,2.875c4.609-7.995,10.199-15.276,16.673-21.85C628.611,322.891,623.872,318.69,621.018,321.589z
					"/>
			</g>
		</g>
		<g id="XMLID_3417_">
			<g id="XMLID_3420_">
				<polygon id="XMLID_3421_" style="fill:#A4A14F;" points="754.02,391.017 698.494,408.97 714.418,424.873 598.519,537.643 
					499.71,514.614 360.863,676.251 374.958,687.568 505.773,531.598 603.669,556.635 722.662,433.105 736.972,447.396 				"/>
			</g>
			<g id="XMLID_3418_">
				<path id="XMLID_3419_" style="fill:#037C75;" d="M789.628,841.944v-342.47c0-4.701-3.846-8.547-8.547-8.547H697.79
					c-4.701,0-8.547,3.846-8.547,8.547v342.47H678.45V595.372c0-4.701-3.846-8.547-8.547-8.547h-83.292
					c-4.701,0-8.547,3.846-8.547,8.547v246.572h-10.792V663.57c0-4.701-3.846-8.547-8.547-8.547h-83.292
					c-4.701,0-8.547,3.846-8.547,8.547v178.374h-10.792V744.56c0-4.701-3.847-8.547-8.547-8.547h-83.292
					c-4.701,0-8.547,3.846-8.547,8.547v97.384h-32.849v32.939h500.937v-32.939H789.628z"/>
			</g>
		</g>
	</g>
</g>
</svg>
